<svg xmlns="http://www.w3.org/2000/svg" viewBox="0 0 64 64" fill="none">
  <defs>
    <linearGradient id="icloud-grad" x1="0" y1="0" x2="0" y2="1">
      <stop offset="0%" stop-color="#5ec3f5"/>
      <stop offset="100%" stop-color="#2a8fd9"/>
    </linearGradient>
  </defs>
  <rect width="64" height="64" rx="14" fill="white"/>
  <path d="M18 40c-3.3 0-6-2.7-6-6 0-3 2.2-5.5 5.1-5.9.4-4.5 4.2-8.1 8.9-8.1 3.4 0 6.4 1.9 7.9 4.7 1-.4 2-.7 3.1-.7 4.4 0 8 3.6 8 8 0 .3 0 .7-.1 1 2.4.5 4.1 2.6 4.1 5.1 0 2.9-2.4 5.3-5.3 5.3H18z"
    fill="url(#icloud-grad)"/>
</svg>
